<svg viewBox="0 0 128 128" fill="none" xmlns="http://www.w3.org/2000/svg">
<path d="M27 63.5C27 59.3579 30.3579 56 34.5 56V56C38.6421 56 42 59.3579 42 63.5V102H27V63.5Z" fill="#B7AEB4"/>
<path d="M47 33.5C47 29.3579 50.3579 26 54.5 26V26C58.6421 26 62 29.3579 62 33.5V102H47V33.5Z" fill="#B7AEB4"/>
<path d="M67 50.5C67 46.3579 70.3579 43 74.5 43V43C78.6421 43 82 46.3579 82 50.5V102H67V50.5Z" fill="#B7AEB4"/>
<path d="M87 73.5C87 69.3579 90.3579 66 94.5 66V66C98.6421 66 102 69.3579 102 73.5V102H87V73.5Z" fill="#B7AEB4"/>
</svg>
