<svg viewBox="0 0 128 128" fill="none" xmlns="http://www.w3.org/2000/svg">
<path fill-rule="evenodd" clip-rule="evenodd" d="M97.9801 59.0263C98.6158 59.2401 99.2888 59.4665 100 59.7193V69.2807C99.2928 69.5323 98.6219 69.7578 97.9869 69.9712C94.2839 71.2157 91.802 72.0498 90.4712 75.2595C89.1395 78.4764 90.3074 80.8234 92.0481 84.3214C92.3452 84.9184 92.659 85.5489 92.9799 86.223L86.2201 92.9858C85.5333 92.6594 84.8926 92.341 84.2874 92.0402C80.7791 90.2966 78.4643 89.1461 75.2802 90.4682H75.2772C72.048 91.8135 71.2159 94.2872 69.967 98C69.7549 98.6307 69.5307 99.2972 69.2807 100H59.7193C59.4667 99.2893 59.2405 98.6158 59.0267 97.9791C57.7807 94.2691 56.9532 91.8053 53.7465 90.4771H53.7435C50.5269 89.143 48.1757 90.3123 44.6789 92.0515C44.0817 92.3485 43.451 92.6622 42.777 92.9828L36.0172 86.2201C36.3383 85.545 36.6536 84.9125 36.9528 84.3125C38.6737 80.8609 39.8586 78.4845 38.5229 75.2535C37.1915 72.0452 34.7104 71.212 31.0075 69.9686C30.3742 69.7559 29.7052 69.5313 29 69.2807V59.7193C29.7103 59.4665 30.3838 59.2401 31.0209 59.026C34.7215 57.782 37.1928 56.9513 38.5229 53.7435C39.8557 50.5301 38.6943 48.1933 36.9556 44.695C36.6566 44.0934 36.3405 43.4576 36.0172 42.777L42.777 36.0172C43.4566 36.3404 44.0913 36.6558 44.6914 36.9541C48.2052 38.7006 50.5319 39.857 53.7435 38.5229H53.7465C56.9514 37.193 57.7819 34.7221 59.0255 31.0222C59.2398 30.3848 59.4663 29.7108 59.7193 29H69.2807C69.533 29.7099 69.7589 30.3823 69.9725 31.018C71.2214 34.7348 72.0477 37.1941 75.2535 38.5229H75.2565C78.4732 39.856 80.8237 38.6872 84.3144 36.9514C84.9136 36.6535 85.5465 36.3388 86.223 36.0172L92.9828 42.777C92.6595 43.4579 92.3437 44.0938 92.0451 44.6952C90.3032 48.2034 89.1462 50.5337 90.4771 53.7435V53.7465C91.8041 56.9489 94.2497 57.7715 97.9801 59.0263ZM64.5 80C73.0604 80 80 73.0604 80 64.5C80 55.9396 73.0604 49 64.5 49C55.9396 49 49 55.9396 49 64.5C49 73.0604 55.9396 80 64.5 80Z" fill="#B7AEB4"/>
</svg>
